<svg version="1.1" id="Layer_1" xmlns="http://www.w3.org/2000/svg" xmlns:xlink="http://www.w3.org/1999/xlink" x="0px" y="0px"
	 width="100%" viewBox="0 0 500 433" enable-background="new 0 0 500 433" xml:space="preserve">
<path fill="#FEFEFE" opacity="1.000000" stroke="none" 
	d="
M1.000000,152.000000 
	C1.000000,101.333336 1.000000,51.166668 1.000000,1.000000 
	C167.666672,1.000000 334.333344,1.000000 501.000000,1.000000 
	C501.000000,145.333328 501.000000,289.666656 501.000000,434.000000 
	C334.333344,434.000000 167.666672,434.000000 1.000000,434.000000 
	C1.000000,340.166656 1.000000,246.333328 1.000000,152.000000 
M218.025192,188.943588 
	C217.076324,182.339813 219.441040,174.894653 213.051926,168.925507 
	C206.811035,154.951492 210.191223,142.875549 220.995392,132.051468 
	C213.724152,132.175751 216.114716,127.047455 214.896545,123.423294 
	C217.939362,122.780258 220.613937,122.494003 223.052551,121.578918 
	C224.224899,121.138985 224.951767,119.511902 225.880356,118.422417 
	C224.556137,117.629326 223.194016,116.122627 221.915543,116.190536 
	C219.187363,116.335480 216.502548,117.296616 213.463226,118.001434 
	C212.807129,114.952400 212.261871,112.418533 211.645126,109.552368 
	C215.588852,108.357491 219.159637,107.275604 223.023666,106.104874 
	C222.372055,104.067520 221.890030,102.560432 221.325348,100.794899 
	C217.352844,101.923553 213.712051,102.957970 209.632782,104.116959 
	C208.752197,101.888641 207.938202,99.828796 207.182770,97.160179 
	C207.784698,96.413109 208.386612,95.666039 209.743866,94.945641 
	C211.146103,94.436058 212.562668,93.962486 213.947983,93.410446 
	C218.969696,91.409302 219.102921,90.777626 215.343033,86.029518 
	C213.226440,87.178627 211.062134,88.353638 208.204376,89.744743 
	C201.456528,92.684776 203.726456,85.692780 200.702667,83.711845 
	C203.457794,82.115913 205.513000,80.695107 207.751801,79.678658 
	C211.848434,77.818726 212.133972,75.680733 208.492081,72.650810 
	C206.900803,73.598480 205.421646,74.698753 203.773849,75.406242 
	C201.621399,76.330406 199.335464,76.943726 196.984756,77.024956 
	C195.926926,75.231163 194.869095,73.437370 193.753952,71.546387 
	C197.180466,68.873642 200.243317,66.484550 203.540894,63.912373 
	C202.210190,62.248337 201.240662,61.035942 200.481644,60.086800 
	C196.418076,62.429653 192.803146,64.513847 188.980377,65.976379 
	C187.667389,64.305176 186.354385,62.633968 184.389526,60.133064 
	C187.585251,57.635231 190.685135,55.212296 194.290878,52.393963 
	C192.508957,50.323013 191.495010,49.144600 190.462112,47.944172 
	C186.439545,51.348228 183.303528,54.002060 179.848083,56.093693 
	C177.803375,54.734318 175.758682,53.374943 173.713974,52.015568 
	C174.161057,51.505402 174.608124,50.995232 175.055191,50.485065 
	C177.470306,47.476566 179.885437,44.468063 182.489487,41.224194 
	C180.767136,39.926060 179.516403,38.983395 177.960083,37.810394 
	C175.515366,41.073425 173.268814,44.071953 170.320023,47.014999 
	C168.183060,45.691772 166.046112,44.368546 163.952606,42.313992 
	C165.804474,39.036869 167.656357,35.759743 169.502548,32.492695 
	C166.779755,29.075886 164.729324,29.113758 162.828629,32.992069 
	C161.758148,35.176361 160.260605,37.151367 158.937241,39.249519 
	C156.704681,38.294552 154.897766,37.521652 152.685883,36.170303 
	C153.666687,32.393539 154.647491,28.616776 155.751465,24.365648 
	C154.630386,23.852539 153.222626,23.208214 151.484650,22.412758 
	C149.720581,26.041883 148.152176,29.268461 146.510422,32.645947 
	C144.951263,32.279381 143.541412,31.947920 141.604843,31.153116 
	C138.956589,30.270168 138.479111,28.634157 139.605957,26.138716 
	C140.604294,23.927887 141.300797,21.580767 142.331116,18.740986 
	C132.890549,15.881826 136.675858,25.708931 132.473267,27.637859 
	C131.556931,27.474985 130.278412,27.247740 128.371170,26.665285 
	C122.877342,25.476622 125.918556,21.759171 126.557671,19.315990 
	C127.665154,15.082380 126.200073,13.888501 121.968391,14.200812 
	C121.439476,16.575079 121.239914,18.940336 120.336998,20.996790 
	C119.755013,22.322319 118.140846,23.194662 116.220337,24.002495 
	C112.124718,24.120121 110.429611,22.562948 111.754059,18.264854 
	C112.250984,16.652231 111.834587,14.758168 111.834587,13.194046 
	C107.463890,11.691288 106.298180,13.714533 106.104568,17.190060 
	C106.006477,18.950968 105.722916,20.746063 105.204262,22.427313 
	C104.607704,24.361155 102.964874,26.185289 102.962326,28.058687 
	C102.847260,112.614159 102.861053,197.169800 102.873886,281.725433 
	C102.874153,283.472656 103.041824,285.219910 103.122810,286.799774 
	C106.170700,287.240021 108.598091,287.590637 110.987000,288.857544 
	C110.987000,291.119171 110.987000,293.380798 110.987000,295.671509 
	C151.531799,295.671509 191.440811,295.671509 231.797165,295.671509 
	C231.797165,289.968597 231.797165,284.515594 232.005463,278.212921 
	C232.434250,275.155853 231.517212,273.343719 228.027390,273.919006 
	C223.917465,274.596497 222.616501,272.593872 223.132462,268.820129 
	C223.304703,267.560333 223.414307,266.291992 223.542389,265.120422 
	C231.980301,264.053131 231.980301,264.053131 231.382355,260.203491 
	C222.331009,259.008972 222.331009,259.008972 223.696899,251.322067 
	C231.997238,249.553055 231.997238,249.553055 231.413544,246.739563 
	C228.483536,245.769135 224.088333,245.514038 223.534592,243.922424 
	C221.121796,236.987427 225.234589,234.916779 231.721970,236.109390 
	C231.721970,234.254089 231.721970,233.016907 231.721970,231.551331 
	C228.890961,231.340347 226.306580,231.147736 223.413681,230.932129 
	C223.413681,228.226196 222.432602,224.651566 223.638626,223.610397 
	C225.551331,221.959167 228.926239,222.001678 231.874023,221.280777 
	C232.749741,213.622818 225.699661,219.148499 223.527710,215.859512 
	C223.527710,213.722122 223.527710,211.019791 223.527710,208.201996 
	C226.499634,208.003723 229.090714,207.830872 231.826721,207.648331 
	C232.672363,199.590271 225.591797,205.215515 223.487000,201.778076 
	C223.487000,199.660065 223.487000,196.941299 223.487000,193.801727 
	C225.639267,193.801727 227.485580,194.031250 229.231857,193.712524 
	C230.221466,193.531906 231.046982,192.452133 231.946396,191.777328 
	C231.077408,191.069992 230.238281,189.801895 229.334198,189.753738 
	C225.690918,189.559677 222.027542,189.742355 218.025192,188.943588 
M256.503326,288.890137 
	C256.503326,291.131195 256.503326,293.372284 256.503326,295.548126 
	C297.450775,295.548126 337.629974,295.548126 377.737091,295.548126 
	C377.737091,208.352432 377.737091,121.519234 377.737091,34.579876 
	C374.984436,34.579876 372.497742,34.579876 370.066376,33.709194 
	C370.001648,31.546450 370.034393,29.374775 369.837341,27.224154 
	C369.709534,25.829191 369.436737,23.356256 368.902740,23.264513 
	C365.054230,22.603302 365.960541,19.696438 365.941803,17.430441 
	C365.906403,13.155529 364.262817,11.688196 359.862701,13.442952 
	C360.144897,16.378353 361.525146,19.842360 360.359467,21.753813 
	C359.251617,23.570490 355.481812,23.763836 352.430084,24.828856 
	C351.775543,21.462202 351.672882,19.056459 350.769958,17.002544 
	C350.239044,15.794895 348.436554,15.146260 347.205963,14.246166 
	C346.528748,15.484469 345.230743,16.761274 345.304657,17.953005 
	C345.454315,20.365894 346.347565,22.732664 347.012970,25.438837 
	C344.220490,26.322971 341.752686,27.104305 338.786957,28.043299 
	C338.000916,25.597374 337.226501,23.616646 336.734375,21.568108 
	C335.664886,17.116304 333.426147,16.796122 330.119476,19.320650 
	C333.329437,30.561977 333.329437,30.561977 325.514679,32.447578 
	C323.929291,29.251364 322.326599,26.020252 320.547485,22.433489 
	C318.752197,23.312227 317.345306,24.000868 315.513947,24.897270 
	C317.116486,28.097775 319.640228,30.929462 319.545837,33.671032 
	C319.474518,35.743298 316.058228,37.700417 313.707214,40.149944 
	C311.004395,35.918846 309.063477,32.880447 306.890015,29.478012 
	C305.238281,30.472406 303.901337,31.277275 302.179291,32.313999 
	C304.377441,35.880756 306.336731,39.059906 308.504791,42.577812 
	C305.977203,44.323914 303.876068,45.775421 301.637115,47.322151 
	C298.889740,43.970699 296.503571,41.059860 293.913391,37.900177 
	C292.383087,39.288536 291.196381,40.365189 289.801361,41.630806 
	C292.370148,44.803516 294.738892,47.729179 297.353912,50.958992 
	C295.207184,52.953053 293.325073,54.701317 290.217682,57.587719 
	C287.880127,54.024017 285.773560,50.812500 283.478363,47.313374 
	C280.902130,49.480026 279.685150,50.503536 277.343903,52.472565 
	C281.259064,55.574497 284.335297,58.011730 287.546875,60.556221 
	C285.254547,63.211483 283.574249,65.157837 281.820496,67.189262 
	C278.326233,64.539032 275.315826,62.255772 272.035034,59.767448 
	C270.880737,61.370453 269.951050,62.661530 268.794983,64.266968 
	C272.109161,66.811989 275.188904,69.176979 278.451813,71.682640 
	C276.757507,74.218864 275.401978,76.247955 273.830658,78.600067 
	C270.225098,76.543930 266.955078,74.679123 263.358978,72.628380 
	C262.421051,74.265099 261.628662,75.647789 260.612305,77.421349 
	C264.250000,79.552261 267.602020,81.515823 271.062164,83.542725 
	C269.664948,86.336212 268.564514,88.536392 267.300171,91.064232 
	C263.545105,89.493088 260.088287,88.046715 256.279938,86.453278 
	C255.470230,88.333382 254.848953,89.775932 254.105484,91.502205 
	C257.932648,93.136322 261.394836,94.614601 265.161652,96.222954 
	C264.059326,99.034843 263.120117,101.430573 262.111023,104.004700 
	C258.157745,102.943146 254.708786,102.017014 250.846069,100.979774 
	C250.431183,102.963280 250.108475,104.506020 249.754929,106.196266 
	C253.450943,107.369179 256.734192,108.411102 260.479034,109.599510 
	C259.790558,112.544930 259.176788,115.170723 258.540131,117.894447 
	C254.513458,117.089470 251.141953,116.415482 247.434326,115.674286 
	C247.021652,117.591209 246.697159,119.098587 246.314606,120.875648 
	C250.097565,121.802132 253.437866,122.620209 257.302734,123.566757 
	C256.161804,127.401817 257.866638,132.289169 251.695908,132.336639 
	C254.002640,135.498352 255.973267,138.580719 258.338623,141.322525 
	C260.281708,143.574875 262.355804,146.214127 264.952179,147.322815 
	C283.479736,155.234360 302.161224,162.784973 320.782532,170.477570 
	C327.158966,173.111710 328.388062,176.119492 325.450531,182.152344 
	C322.023682,189.190277 318.534576,196.199905 314.942749,203.154800 
	C312.294922,208.281784 308.907410,209.181412 303.868408,206.258087 
	C297.241608,202.413605 290.649780,198.508865 284.040771,194.633667 
	C274.608948,189.103287 265.175171,183.576218 254.890198,177.548355 
	C254.890198,181.840729 254.890198,185.227264 254.890198,189.174316 
	C249.393143,189.174316 244.478043,189.174316 239.074005,189.174316 
	C238.946152,196.886841 245.377029,191.848648 247.707092,195.041122 
	C247.707092,197.059967 247.707092,199.792099 247.707092,201.504700 
	C245.543091,205.220612 238.337646,199.858490 239.208954,207.695267 
	C242.367050,207.882797 244.957794,208.036636 247.610626,208.194168 
	C247.610626,211.314484 247.610626,214.027939 247.610626,216.858444 
	C244.626938,217.034637 242.024704,217.188293 239.161682,217.357361 
	C238.473740,225.356735 245.548386,220.124954 247.729950,223.043625 
	C247.729950,225.460449 247.729950,228.062073 247.729950,231.273270 
	C245.685928,231.273270 243.832367,230.970200 242.152588,231.379776 
	C241.031662,231.653061 240.158188,232.941223 239.173965,233.775177 
	C240.178177,234.542267 241.088989,235.729309 242.208435,235.978256 
	C243.899689,236.354401 245.736420,236.076447 247.645035,236.076447 
	C247.645035,239.620743 247.645035,242.505432 247.645035,244.365158 
	C244.624191,245.844513 242.288223,246.988449 239.952271,248.132416 
	C242.391922,249.219803 244.831573,250.307190 247.594055,251.538483 
	C247.594055,253.750366 247.594055,256.618042 247.594055,259.544373 
	C244.934906,259.750946 242.675278,259.926483 240.344559,260.107544 
	C239.714279,266.966248 245.685699,262.642517 247.616730,265.077271 
	C247.616730,267.820618 247.616730,270.705383 247.616730,272.592621 
	C244.680176,273.985077 240.522003,275.020081 240.503128,276.125671 
	C240.415115,281.286194 245.754028,277.147675 247.841110,279.807098 
	C247.937866,281.698517 248.047546,283.842560 248.199020,286.751831 
	C250.816391,287.162445 253.433746,287.573059 256.303955,288.178772 
	C256.303955,288.178772 256.538055,287.961548 256.503326,288.890137 
M27.203825,356.681793 
	C24.705091,364.057892 22.377237,371.498962 19.611017,378.773346 
	C18.695328,381.181335 16.650625,383.160034 15.122124,385.334991 
	C14.814225,385.149323 14.506328,384.963623 14.198429,384.777924 
	C14.198429,386.674377 14.198429,388.570831 14.198429,390.408173 
	C20.293060,390.408173 26.030951,390.408173 31.794067,390.408173 
	C31.794067,388.101471 31.794067,386.132996 31.794067,384.214203 
	C30.388498,383.849091 29.184994,383.536469 28.051579,383.242065 
	C27.996017,378.501587 30.100298,376.751343 34.526470,377.273590 
	C37.155876,377.583862 39.880184,377.577484 42.511490,377.275269 
	C46.989845,376.760864 49.010563,378.574280 48.823490,383.309845 
	C47.365520,383.708984 45.850292,384.123749 44.403599,384.519806 
	C44.403599,386.687622 44.403599,388.573547 44.403599,390.497101 
	C51.184509,390.497101 57.613281,390.497101 64.226532,390.497101 
	C64.226532,388.199768 64.226532,386.157318 64.226532,384.114868 
	C63.763653,384.357697 63.300770,384.600494 62.837891,384.843323 
	C61.409874,383.096039 59.394756,381.567230 58.649868,379.565704 
	C54.084934,367.299530 49.864559,354.905426 45.357525,342.616974 
	C44.834511,341.191010 43.323788,339.187073 42.150654,339.101593 
	C36.906364,338.719238 31.618452,338.935303 26.208290,338.935303 
	C26.208290,341.432007 26.208290,343.232941 26.208290,345.236572 
	C27.627192,345.599457 29.019793,345.955627 30.710735,346.388092 
	C29.626200,349.702789 28.599913,352.839447 27.203825,356.681793 
M330.032806,384.741974 
	C329.616943,386.602783 329.201080,388.463562 328.745636,390.501587 
	C335.629486,390.501587 341.571533,390.501587 347.725067,390.501587 
	C347.725067,388.486389 347.725067,386.707306 347.725067,384.768463 
	C346.342224,384.318268 344.971680,383.872101 343.866058,383.512146 
	C343.866058,376.736694 343.523743,370.245941 343.983521,363.812531 
	C344.302795,359.345123 348.044281,357.889771 351.986298,358.080109 
	C355.934082,358.270752 357.113800,361.151947 357.099823,364.745483 
	C357.079102,370.076996 357.226715,375.410736 357.105133,380.739044 
	C357.079193,381.875336 356.391052,383.827576 355.693878,383.981598 
	C351.419891,384.925537 352.403137,387.635742 352.935791,390.471252 
	C359.068604,390.471252 364.959442,390.471252 370.779510,390.471252 
	C371.861237,386.650696 371.741608,383.692627 366.957794,383.508057 
	C366.957794,376.427795 367.110779,369.762573 366.919617,363.107208 
	C366.672729,354.511902 362.146515,350.170380 353.590485,350.811615 
	C350.171265,351.067841 346.862854,352.802490 343.155029,353.974487 
	C343.155029,348.009033 343.155029,341.894531 343.155029,335.629639 
	C338.304871,335.629639 333.878052,335.629639 329.269958,335.629639 
	C329.269958,337.834808 329.269958,339.782928 329.269958,341.731079 
	C329.680878,341.512878 330.091797,341.294708 330.502716,341.076538 
	C331.662628,342.823700 333.778900,344.545074 333.826874,346.322266 
	C334.132538,357.645233 334.093536,368.982971 333.844849,380.308746 
	C333.812958,381.761688 331.910431,383.173615 330.032806,384.741974 
M205.374710,367.497314 
	C205.373093,371.663635 205.459671,375.833008 205.315201,379.994385 
	C205.272873,381.213867 204.731247,383.372833 204.151596,383.467529 
	C198.890472,384.326965 201.250443,387.740631 201.147049,390.429352 
	C208.317703,390.429352 215.060867,390.429352 221.863586,390.429352 
	C221.863586,388.134918 221.863586,386.160431 221.863586,384.018066 
	C219.626740,383.816315 217.530548,383.627228 215.561127,383.449615 
	C215.561127,378.428009 215.561127,373.706818 215.561127,368.677734 
	C221.900635,368.677734 227.843552,368.677734 233.986450,368.677734 
	C233.986450,365.919739 233.986450,363.492462 233.986450,360.603455 
	C227.702957,360.603455 221.624847,360.603455 215.422852,360.603455 
	C215.422852,356.043152 215.422852,351.946655 215.422852,347.887939 
	C227.638092,346.244934 229.603348,346.825867 231.243637,352.754669 
	C233.609085,352.605042 236.043915,352.451019 238.609741,352.288727 
	C238.609741,347.670776 238.609741,343.457153 238.609741,339.124023 
	C225.999512,339.124023 213.724289,339.124023 201.232147,339.124023 
	C201.232147,341.295959 201.232147,343.255615 201.232147,345.598816 
	C205.532944,345.398438 205.498810,348.311432 205.411102,351.501099 
	C205.273727,356.496887 205.374710,361.499207 205.374710,367.497314 
M463.873718,390.728271 
	C467.337952,387.177216 466.536804,384.901154 461.251007,383.429047 
	C461.251007,377.134491 460.871948,370.791626 461.380615,364.520782 
	C461.736053,360.138519 465.077576,357.830200 469.461090,358.036499 
	C473.957214,358.248047 475.047577,361.480713 475.014130,365.393311 
	C474.977112,369.726074 474.758636,374.079834 475.098846,378.386566 
	C475.404114,382.250824 474.583069,384.886810 470.378174,385.097321 
	C470.378174,387.076996 470.378174,388.683411 470.378174,390.417847 
	C476.687531,390.417847 482.744904,390.417847 488.876770,390.417847 
	C489.046478,387.026154 490.299591,383.417938 484.847015,383.791473 
	C484.847015,381.464905 484.905121,379.643372 484.836456,377.826660 
	C484.604309,371.684692 484.745270,365.489380 483.946045,359.419464 
	C483.193970,353.707703 479.236298,350.403412 473.546173,350.825409 
	C468.975433,351.164429 464.504608,352.850677 459.948090,353.949097 
	C459.211334,351.123627 457.282043,350.718994 445.764679,352.231323 
	C446.460022,354.328888 446.873291,357.841553 447.799957,357.982635 
	C452.040222,358.628296 451.627838,361.419617 451.627625,364.251831 
	C451.627289,368.751648 451.445770,373.261108 451.683014,377.748383 
	C451.884338,381.556152 451.433502,384.681244 446.860352,385.196625 
	C447.001251,387.271454 447.109436,388.864532 447.236847,390.740723 
	C452.693451,390.740723 457.839020,390.740723 463.873718,390.728271 
M283.277893,384.188538 
	C279.900208,383.990570 280.024323,381.587128 280.033386,379.159454 
	C280.065521,370.530701 280.045929,361.901764 280.045929,353.225342 
	C277.566589,352.466492 275.401520,351.481232 273.142975,351.165924 
	C260.327576,349.376740 249.726089,351.220398 246.544083,365.711212 
	C245.572525,370.135559 245.559143,375.090240 246.437210,379.539520 
	C248.851624,391.773773 261.403717,395.794128 270.783752,387.713409 
	C270.992462,387.533569 271.359192,387.537140 271.703857,387.440704 
	C271.926422,388.496399 272.149689,389.555237 272.393677,390.712433 
	C276.052887,390.712433 279.540100,390.729034 283.026764,390.692566 
	C283.488953,390.687744 283.948273,390.412781 284.984894,390.075592 
	C284.666321,388.247345 284.344208,386.398804 283.277893,384.188538 
M88.872894,390.739899 
	C89.475464,389.113495 90.973724,386.434235 90.520615,386.048767 
	C88.842377,384.621063 86.520500,383.949951 84.235970,382.900635 
	C84.235970,375.141174 84.235970,367.033356 84.235970,358.436859 
	C88.012711,358.436859 91.582939,358.436859 95.378593,358.436859 
	C95.378593,356.017883 95.378593,354.089203 95.378593,351.741272 
	C91.599754,351.741272 88.016251,351.741272 84.493477,351.741272 
	C83.292480,342.265564 85.336594,340.912567 96.759781,343.395081 
	C97.466621,341.481445 98.185432,339.535431 98.935555,337.504608 
	C92.988495,334.371826 87.174011,333.536224 81.280205,335.836578 
	C74.117134,338.632294 75.157700,345.718689 74.011841,351.476501 
	C71.872993,351.628540 70.075653,351.756287 68.282150,351.883789 
	C68.282150,354.143372 68.282150,356.219391 68.282150,358.407715 
	C70.354027,358.565247 72.131073,358.700348 74.367729,358.870422 
	C74.367729,365.535858 74.233917,371.994354 74.421272,378.443542 
	C74.522842,381.939850 74.226959,384.818359 69.775276,384.987823 
	C69.873566,387.124115 69.955162,388.897461 70.040504,390.752319 
	C76.322922,390.752319 82.152893,390.752319 88.872894,390.739899 
M157.368820,391.841949 
	C166.418182,391.193848 171.966248,386.784546 174.001053,378.122711 
	C174.749207,374.937897 174.991486,371.561005 174.955109,368.277344 
	C174.755707,350.278809 158.161926,347.354736 147.851624,353.146149 
	C140.795059,357.109894 137.542007,366.826447 139.677399,376.969330 
	C141.853210,387.304169 146.277267,391.233856 157.368820,391.841949 
M438.978241,363.713379 
	C435.921967,353.442810 429.516449,349.342682 418.728333,350.751587 
	C410.318817,351.849823 404.423615,358.783173 403.983917,368.171448 
	C403.882996,370.326447 403.883606,372.494202 403.983978,374.649261 
	C404.464081,384.957123 410.386322,391.410583 419.663635,391.806061 
	C430.270233,392.258148 437.723938,386.286316 438.983978,375.921051 
	C439.438751,372.180267 439.054352,368.337494 438.978241,363.713379 
M321.005493,359.367493 
	C322.009033,354.666534 319.957428,352.055786 315.336212,351.600891 
	C311.242126,351.197876 307.036224,350.552246 303.019073,351.078339 
	C297.406097,351.813385 293.446808,356.416107 293.000305,361.346069 
	C292.404968,367.918701 294.546936,371.305573 301.147156,373.854523 
	C303.457764,374.746826 306.160400,374.879578 308.198151,376.142914 
	C309.870819,377.179901 310.823761,379.377869 312.095703,381.061218 
	C310.418945,382.292511 308.887390,384.241791 307.037262,384.615997 
	C302.145416,385.605499 298.907532,383.815460 299.988403,376.282532 
	C296.601013,378.135864 293.031281,378.908173 292.587555,380.533783 
	C290.541870,388.027435 292.766907,390.799255 300.510498,391.584290 
	C303.147247,391.851624 305.829254,391.800842 308.485535,391.723175 
	C315.491333,391.518341 320.927277,387.259216 321.903107,381.324860 
	C322.942657,375.002625 319.571320,370.364197 312.096466,367.873352 
	C309.901093,367.141815 307.414368,366.876923 305.563934,365.643707 
	C304.019501,364.614471 303.210022,362.482452 302.075073,360.838806 
	C303.858337,359.658386 305.527252,357.747589 307.448242,357.446777 
	C311.692719,356.782227 314.313751,358.925262 314.124939,364.064819 
	C316.753357,362.594727 321.043854,365.759186 321.005493,359.367493 
M105.787598,366.536285 
	C105.787491,370.367950 105.662163,374.204926 105.823517,378.029785 
	C105.975975,381.643799 105.883804,384.901855 101.137665,384.869263 
	C101.137665,386.989319 101.137665,388.625732 101.137665,390.499878 
	C108.046913,390.499878 114.804832,390.499878 121.652237,390.499878 
	C121.652237,388.428040 121.652237,386.555145 121.652237,384.555115 
	C119.400055,384.273651 117.464149,384.031677 115.154785,383.743073 
	C115.154785,377.756989 114.906197,371.951447 115.244896,366.180389 
	C115.459595,362.522156 117.152512,358.856018 121.382462,359.054901 
	C123.136200,359.137390 124.753326,362.125031 127.157341,364.510742 
	C127.867287,364.425171 129.939529,364.175415 133.186707,363.784027 
	C132.131821,359.304047 132.453903,353.416290 130.039490,351.907471 
	C124.789284,348.626495 118.847466,350.462097 114.336220,355.896759 
	C114.060555,354.219727 113.862328,353.013794 113.700996,352.032288 
	C109.164146,352.032288 104.916183,352.032288 99.841827,352.032288 
	C100.544830,354.478760 100.936790,357.994812 101.675392,358.069183 
	C107.085808,358.614136 105.532280,362.497192 105.787598,366.536285 
M315.101074,184.540054 
	C317.088989,181.127518 318.334686,177.044357 314.616974,174.719315 
	C310.074341,171.878372 305.455444,167.501144 299.216644,170.048050 
	C297.844299,170.608292 296.764557,172.188324 295.859924,173.510727 
	C294.838104,175.004395 294.159546,176.734039 293.342590,178.366516 
	C287.495819,190.049683 287.968079,191.473480 299.611389,197.303513 
	C299.759644,197.377762 299.895905,197.476181 300.045166,197.548035 
	C304.734802,199.805267 307.740021,198.838928 310.291809,194.117081 
	C311.869019,191.198624 313.295593,188.198761 315.101074,184.540054 
M392.586823,381.223511 
	C392.586823,371.480255 392.586823,361.736969 392.586823,351.855774 
	C387.447144,351.855774 383.000916,351.855774 378.327484,351.855774 
	C378.327484,353.976929 378.327484,355.916443 378.327484,357.987610 
	C379.901123,358.466644 381.393311,358.920868 382.973541,359.401917 
	C382.973541,365.888611 382.763428,372.045288 383.050171,378.178772 
	C383.230347,382.032654 382.441254,384.714935 378.182251,385.035492 
	C378.182251,386.993103 378.182251,388.628021 378.182251,390.558014 
	C379.791504,390.628448 381.257324,390.740265 382.723694,390.747864 
	C387.346893,390.771820 391.970337,390.756714 396.785431,390.756714 
	C396.785431,388.502625 396.785431,386.718231 396.785431,385.396667 
	C395.225800,384.189301 393.919403,383.177948 392.586823,381.223511 
M267.137634,178.128586 
	C275.356354,186.304123 281.576233,184.252075 284.662384,175.720688 
	C285.278564,174.017334 286.192871,172.419800 286.997253,170.787033 
	C288.633026,167.466721 288.689636,164.124908 285.673737,161.777740 
	C282.349365,159.190491 278.413422,157.427094 274.142731,159.555984 
	C270.236664,161.503143 265.771362,172.831360 267.137634,178.128586 
M388.100464,346.709106 
	C391.905121,345.592682 394.123962,342.874756 392.447083,339.303894 
	C391.519257,337.328186 388.306976,335.516449 385.988037,335.330353 
	C383.014954,335.091766 380.900787,337.403229 380.958313,340.880280 
	C381.028015,345.092743 383.362854,346.789520 388.100464,346.709106 
z"/>
<path fill="#8372D6" opacity="1.000000" stroke="none" 
	d="
M248.157227,285.986572 
	C248.047546,283.842560 247.937866,281.698517 247.841110,279.807098 
	C245.754028,277.147675 240.415115,281.286194 240.503128,276.125671 
	C240.522003,275.020081 244.680176,273.985077 247.616730,272.592621 
	C247.616730,270.705383 247.616730,267.820618 247.616730,265.077271 
	C245.685699,262.642517 239.714279,266.966248 240.344559,260.107544 
	C242.675278,259.926483 244.934906,259.750946 247.594055,259.544373 
	C247.594055,256.618042 247.594055,253.750366 247.594055,251.538483 
	C244.831573,250.307190 242.391922,249.219803 239.952271,248.132416 
	C242.288223,246.988449 244.624191,245.844513 247.645035,244.365158 
	C247.645035,242.505432 247.645035,239.620743 247.645035,236.076447 
	C245.736420,236.076447 243.899689,236.354401 242.208435,235.978256 
	C241.088989,235.729309 240.178177,234.542267 239.173981,233.775177 
	C240.158188,232.941223 241.031662,231.653061 242.152588,231.379776 
	C243.832367,230.970200 245.685928,231.273270 247.729950,231.273270 
	C247.729950,228.062073 247.729950,225.460449 247.729950,223.043625 
	C245.548386,220.124954 238.473740,225.356735 239.161682,217.357361 
	C242.024704,217.188293 244.626938,217.034637 247.610626,216.858444 
	C247.610626,214.027939 247.610626,211.314484 247.610626,208.194168 
	C244.957794,208.036636 242.367050,207.882797 239.208954,207.695267 
	C238.337646,199.858490 245.543091,205.220612 247.707092,201.504700 
	C247.707092,199.792099 247.707092,197.059967 247.707092,195.041122 
	C245.377029,191.848648 238.946152,196.886841 239.074005,189.174316 
	C244.478043,189.174316 249.393143,189.174316 254.890198,189.174316 
	C254.890198,185.227264 254.890198,181.840729 254.890198,177.548355 
	C265.175171,183.576218 274.608948,189.103287 284.040771,194.633667 
	C290.649780,198.508865 297.241608,202.413605 303.868408,206.258087 
	C308.907410,209.181412 312.294922,208.281784 314.942749,203.154800 
	C318.534576,196.199905 322.023682,189.190277 325.450531,182.152344 
	C328.388062,176.119492 327.158966,173.111710 320.782532,170.477570 
	C302.161224,162.784973 283.479736,155.234360 264.952179,147.322815 
	C262.355804,146.214127 260.281708,143.574875 258.338623,141.322525 
	C255.973267,138.580719 254.002640,135.498352 251.695908,132.336639 
	C257.866638,132.289169 256.161804,127.401817 257.302734,123.566757 
	C253.437866,122.620209 250.097565,121.802132 246.314606,120.875648 
	C246.697159,119.098587 247.021652,117.591209 247.434326,115.674286 
	C251.141953,116.415482 254.513458,117.089470 258.540131,117.894447 
	C259.176788,115.170723 259.790558,112.544930 260.479034,109.599510 
	C256.734192,108.411102 253.450943,107.369179 249.754929,106.196266 
	C250.108475,104.506020 250.431183,102.963280 250.846069,100.979774 
	C254.708786,102.017014 258.157745,102.943146 262.111023,104.004700 
	C263.120117,101.430573 264.059326,99.034843 265.161652,96.222954 
	C261.394836,94.614601 257.932648,93.136322 254.105484,91.502205 
	C254.848953,89.775932 255.470230,88.333382 256.279938,86.453278 
	C260.088287,88.046715 263.545105,89.493088 267.300171,91.064232 
	C268.564514,88.536392 269.664948,86.336212 271.062164,83.542725 
	C267.602020,81.515823 264.250000,79.552261 260.612305,77.421349 
	C261.628662,75.647789 262.421051,74.265099 263.358978,72.628380 
	C266.955078,74.679123 270.225098,76.543930 273.830658,78.600067 
	C275.401978,76.247955 276.757507,74.218864 278.451813,71.682640 
	C275.188904,69.176979 272.109161,66.811989 268.794983,64.266968 
	C269.951050,62.661530 270.880737,61.370453 272.035034,59.767448 
	C275.315826,62.255772 278.326233,64.539032 281.820496,67.189262 
	C283.574249,65.157837 285.254547,63.211483 287.546875,60.556221 
	C284.335297,58.011730 281.259064,55.574497 277.343903,52.472565 
	C279.685150,50.503536 280.902130,49.480026 283.478363,47.313374 
	C285.773560,50.812500 287.880127,54.024017 290.217682,57.587719 
	C293.325073,54.701317 295.207184,52.953053 297.353912,50.958992 
	C294.738892,47.729179 292.370148,44.803516 289.801361,41.630806 
	C291.196381,40.365189 292.383087,39.288536 293.913391,37.900177 
	C296.503571,41.059860 298.889740,43.970699 301.637115,47.322151 
	C303.876068,45.775421 305.977203,44.323914 308.504791,42.577812 
	C306.336731,39.059906 304.377441,35.880756 302.179291,32.313999 
	C303.901337,31.277275 305.238281,30.472406 306.890015,29.478012 
	C309.063477,32.880447 311.004395,35.918846 313.707214,40.149944 
	C316.058228,37.700417 319.474518,35.743298 319.545837,33.671032 
	C319.640228,30.929462 317.116486,28.097775 315.513947,24.897270 
	C317.345306,24.000868 318.752197,23.312227 320.547485,22.433489 
	C322.326599,26.020252 323.929291,29.251364 325.514679,32.447578 
	C333.329437,30.561977 333.329437,30.561977 330.119476,19.320650 
	C333.426147,16.796122 335.664886,17.116304 336.734375,21.568108 
	C337.226501,23.616646 338.000916,25.597374 338.786957,28.043299 
	C341.752686,27.104305 344.220490,26.322971 347.012970,25.438837 
	C346.347565,22.732664 345.454315,20.365894 345.304657,17.953005 
	C345.230743,16.761274 346.528748,15.484469 347.205994,14.246176 
	C348.436554,15.146260 350.239044,15.794895 350.769958,17.002544 
	C351.672882,19.056459 351.775543,21.462202 352.430084,24.828856 
	C355.481812,23.763836 359.251617,23.570490 360.359467,21.753813 
	C361.525146,19.842360 360.144897,16.378353 359.862701,13.442952 
	C364.262817,11.688196 365.906403,13.155529 365.941803,17.430441 
	C365.960541,19.696438 365.054230,22.603302 368.902740,23.264513 
	C369.436737,23.356256 369.709534,25.829191 369.837341,27.224154 
	C370.034393,29.374775 370.001648,31.546450 370.049927,34.510292 
	C369.969666,35.546680 369.905823,35.781971 369.579498,36.336216 
	C369.211731,38.639709 369.015045,40.624218 369.014404,42.608795 
	C368.988708,124.229401 368.980591,205.850006 368.516602,287.580292 
	C350.966888,287.708893 333.870789,287.708801 316.774780,287.751709 
	C296.695831,287.802124 276.616974,287.889954 256.538055,287.961548 
	C256.538055,287.961548 256.303955,288.178772 256.087128,287.699097 
	C253.299271,286.808441 250.728241,286.397522 248.157227,285.986572 
z"/>
<path fill="#5DABB1" opacity="1.000000" stroke="none" 
	d="
M111.025490,287.941223 
	C108.598091,287.590637 106.170700,287.240021 103.122810,286.799774 
	C103.041824,285.219910 102.874153,283.472656 102.873886,281.725433 
	C102.861053,197.169800 102.847260,112.614159 102.962326,28.058687 
	C102.964874,26.185289 104.607704,24.361155 105.204262,22.427313 
	C105.722916,20.746063 106.006477,18.950968 106.104568,17.190060 
	C106.298180,13.714533 107.463890,11.691288 111.834587,13.194046 
	C111.834587,14.758168 112.250984,16.652231 111.754059,18.264854 
	C110.429611,22.562948 112.124718,24.120121 116.607437,24.582355 
	C116.996246,108.991234 117.010582,192.820267 116.956802,276.649231 
	C116.954483,280.266876 116.324570,283.884094 115.580673,287.591309 
	C113.791382,287.767792 112.408440,287.854523 111.025490,287.941223 
z"/>
<path fill="#769FA3" opacity="1.000000" stroke="none" 
	d="
M128.999893,27.020493 
	C130.278412,27.247740 131.556931,27.474985 132.473267,27.637859 
	C136.675858,25.708931 132.890549,15.881826 142.331116,18.740986 
	C141.300797,21.580767 140.604294,23.927887 139.605957,26.138716 
	C138.479111,28.634157 138.956589,30.270168 141.828125,31.885666 
	C142.034073,113.969757 142.029572,195.321320 141.956863,276.672821 
	C141.953629,280.284424 141.328964,283.895508 140.541763,287.599365 
	C136.389969,287.629639 132.690170,287.567413 128.992691,287.067505 
	C128.996643,200.093414 128.998260,113.556953 128.999893,27.020493 
z"/>
<path fill="#6AA5AA" opacity="1.000000" stroke="none" 
	d="
M128.685532,26.842888 
	C128.998260,113.556953 128.996643,200.093414 128.538483,287.159058 
	C124.050285,287.626007 120.018646,287.563782 115.987007,287.501526 
	C116.324570,283.884094 116.954483,280.266876 116.956802,276.649231 
	C117.010582,192.820267 116.996246,108.991234 116.991898,24.716164 
	C118.140846,23.194662 119.755013,22.322319 120.336998,20.996790 
	C121.239914,18.940336 121.439476,16.575079 121.968391,14.200812 
	C126.200073,13.888501 127.665154,15.082380 126.557671,19.315990 
	C125.918556,21.759171 122.877342,25.476622 128.685532,26.842888 
z"/>
<path fill="#030303" opacity="1.000000" stroke="none" 
	d="
M369.841980,36.017265 
	C369.905823,35.781971 369.969666,35.546680 370.022278,34.945633 
	C372.497742,34.579876 374.984436,34.579876 377.737091,34.579876 
	C377.737091,121.519234 377.737091,208.352432 377.737091,295.548126 
	C337.629974,295.548126 297.450775,295.548126 256.503326,295.548126 
	C256.503326,293.372284 256.503326,291.131195 256.520691,288.425842 
	C276.616974,287.889954 296.695831,287.802124 316.774780,287.751709 
	C333.870789,287.708801 350.966888,287.708893 368.886719,287.435547 
	C369.804993,285.696625 369.982056,284.212158 369.982300,282.727692 
	C369.995605,201.986099 369.994873,121.244492 369.987640,40.502895 
	C369.987518,39.007683 369.892670,37.512474 369.841980,36.017265 
z"/>
<path fill="#829A9D" opacity="1.000000" stroke="none" 
	d="
M140.993744,287.506836 
	C141.328964,283.895508 141.953629,280.284424 141.956863,276.672821 
	C142.029572,195.321320 142.034073,113.969757 142.091492,32.117336 
	C143.541412,31.947920 144.951263,32.279381 146.510422,32.645947 
	C148.152176,29.268461 149.720581,26.041883 151.484650,22.412758 
	C153.222626,23.208214 154.630386,23.852539 155.751465,24.365648 
	C154.647491,28.616776 153.666687,32.393539 152.859802,36.948494 
	C153.021347,120.987900 153.008987,204.249100 152.544342,287.602905 
	C148.392624,287.632599 144.693176,287.569702 140.993744,287.506836 
z"/>
<path fill="#8C9597" opacity="1.000000" stroke="none" 
	d="
M152.996628,287.510315 
	C153.008987,204.249100 153.021347,120.987900 153.062286,37.237717 
	C154.897766,37.521652 156.704681,38.294552 158.937241,39.249519 
	C160.260605,37.151367 161.758148,35.176361 162.828629,32.992069 
	C164.729324,29.113758 166.779755,29.075886 169.502548,32.492695 
	C167.656357,35.759743 165.804474,39.036869 163.651886,42.981712 
	C163.234100,45.631210 163.015152,47.612965 163.014709,49.594765 
	C162.997208,128.900269 162.999466,208.205765 162.553009,287.604462 
	C159.070068,287.635193 156.033356,287.572754 152.996628,287.510315 
z"/>
<path fill="#A68A8B" opacity="1.000000" stroke="none" 
	d="
M180.167480,56.655899 
	C183.303528,54.002060 186.439545,51.348228 190.462112,47.944172 
	C191.495010,49.144600 192.508957,50.323013 194.290878,52.393963 
	C190.685135,55.212296 187.585251,57.635231 184.389526,60.133064 
	C186.354385,62.633968 187.667389,64.305176 188.905151,66.705643 
	C188.553284,69.549049 188.036041,71.663040 188.034851,73.777336 
	C187.994598,145.020294 188.003464,216.263275 187.562592,287.600037 
	C184.414825,287.632385 181.709656,287.570953 179.003540,287.071594 
	C179.001724,212.397842 178.989822,138.162003 179.049088,63.926239 
	C179.051041,61.502495 179.778320,59.079334 180.167480,56.655899 
z"/>
<path fill="#AF8686" opacity="1.000000" stroke="none" 
	d="
M188.005188,287.506256 
	C188.003464,216.263275 187.994598,145.020294 188.034851,73.777336 
	C188.036041,71.663040 188.553284,69.549049 189.009064,67.016479 
	C192.803146,64.513847 196.418076,62.429653 200.481644,60.086800 
	C201.240662,61.035942 202.210190,62.248337 203.540894,63.912373 
	C200.243317,66.484550 197.180466,68.873642 193.753952,71.546387 
	C194.869095,73.437370 195.926926,75.231163 197.012817,77.852493 
	C197.029449,148.288040 197.018005,217.896042 196.563828,287.598022 
	C193.415787,287.630066 190.710495,287.568146 188.005188,287.506256 
z"/>
<path fill="#9D8C8E" opacity="1.000000" stroke="none" 
	d="
M180.007782,56.374798 
	C179.778320,59.079334 179.051041,61.502495 179.049088,63.926239 
	C178.989822,138.162003 179.001724,212.397842 178.566696,287.166016 
	C175.754150,287.636108 173.377518,287.573914 171.000580,287.073608 
	C171.007614,206.780533 171.014954,126.925507 171.022278,47.070484 
	C173.268814,44.071953 175.515366,41.073425 177.960083,37.810394 
	C179.516403,38.983395 180.767136,39.926060 182.489487,41.224194 
	C179.885437,44.468063 177.470306,47.476566 175.055191,50.485065 
	C174.608124,50.995232 174.161057,51.505402 173.713974,52.015568 
	C175.758682,53.374943 177.803375,54.734318 180.007782,56.374798 
z"/>
<path fill="#959193" opacity="1.000000" stroke="none" 
	d="
M170.671143,47.042740 
	C171.014954,126.925507 171.007614,206.780533 170.563736,287.166626 
	C167.751190,287.635529 165.375198,287.573395 162.999207,287.511261 
	C162.999466,208.205765 162.997208,128.900269 163.014709,49.594765 
	C163.015152,47.612965 163.234100,45.631210 163.630157,43.347378 
	C166.046112,44.368546 168.183060,45.691772 170.671143,47.042740 
z"/>
<path fill="#B88181" opacity="1.000000" stroke="none" 
	d="
M197.006561,287.504059 
	C197.018005,217.896042 197.029449,148.288040 197.073929,78.185402 
	C199.335464,76.943726 201.621399,76.330406 203.773849,75.406242 
	C205.421646,74.698753 206.900803,73.598480 208.492081,72.650810 
	C212.133972,75.680733 211.848434,77.818726 207.751801,79.678658 
	C205.513000,80.695107 203.457794,82.115913 200.702667,83.711845 
	C203.726456,85.692780 201.456528,92.684776 208.581238,90.093445 
	C208.968246,91.934418 208.978394,93.426697 208.988525,94.918976 
	C208.386612,95.666039 207.784698,96.413109 206.974258,97.866989 
	C206.510498,100.523453 206.033386,102.472977 206.032211,104.422791 
	C205.995392,165.448273 206.004944,226.473770 205.565063,287.593689 
	C202.417313,287.626770 199.711929,287.565399 197.006561,287.504059 
z"/>
<path fill="#C17F7F" opacity="1.000000" stroke="none" 
	d="
M206.007431,287.499268 
	C206.004944,226.473770 205.995392,165.448273 206.032211,104.422791 
	C206.033386,102.472977 206.510498,100.523453 206.944977,98.171371 
	C207.938202,99.828796 208.752197,101.888641 209.632782,104.116959 
	C213.712051,102.957970 217.352844,101.923553 221.325348,100.794899 
	C221.890030,102.560432 222.372055,104.067520 223.023666,106.104874 
	C219.159637,107.275604 215.588852,108.357491 211.645126,109.552368 
	C212.261871,112.418533 212.807129,114.952400 213.463226,118.001434 
	C216.502548,117.296616 219.187363,116.335480 221.915543,116.190536 
	C223.194016,116.122627 224.556137,117.629326 225.880371,118.422424 
	C224.951767,119.511902 224.224899,121.138985 223.052551,121.578918 
	C220.613937,122.494003 217.939362,122.780258 214.896545,123.423294 
	C216.114716,127.047455 213.724152,132.175751 220.995392,132.051468 
	C210.191223,142.875549 206.811035,154.951492 213.013397,169.734009 
	C212.649933,172.984207 212.046005,175.425400 212.041840,177.867630 
	C211.979736,214.393112 211.996780,250.918747 211.579498,287.556641 
	C209.445023,287.612427 207.726227,287.555847 206.007431,287.499268 
z"/>
<path fill="#0A0A0A" opacity="1.000000" stroke="none" 
	d="
M27.388725,356.328949 
	C28.599913,352.839447 29.626200,349.702789 30.710735,346.388092 
	C29.019793,345.955627 27.627192,345.599457 26.208290,345.236572 
	C26.208290,343.232941 26.208290,341.432007 26.208290,338.935303 
	C31.618452,338.935303 36.906364,338.719238 42.150654,339.101593 
	C43.323788,339.187073 44.834511,341.191010 45.357525,342.616974 
	C49.864559,354.905426 54.084934,367.299530 58.649868,379.565704 
	C59.394756,381.567230 61.409874,383.096039 62.837891,384.843323 
	C63.300770,384.600494 63.763653,384.357697 64.226532,384.114868 
	C64.226532,386.157318 64.226532,388.199768 64.226532,390.497101 
	C57.613281,390.497101 51.184509,390.497101 44.403599,390.497101 
	C44.403599,388.573547 44.403599,386.687622 44.403599,384.519806 
	C45.850292,384.123749 47.365520,383.708984 48.823490,383.309845 
	C49.010563,378.574280 46.989845,376.760864 42.511490,377.275269 
	C39.880184,377.577484 37.155876,377.583862 34.526470,377.273590 
	C30.100298,376.751343 27.996017,378.501587 28.051579,383.242065 
	C29.184994,383.536469 30.388498,383.849091 31.794067,384.214203 
	C31.794067,386.132996 31.794067,388.101471 31.794067,390.408173 
	C26.030951,390.408173 20.293060,390.408173 14.198429,390.408173 
	C14.198429,388.570831 14.198429,386.674377 14.198429,384.777924 
	C14.506328,384.963623 14.814225,385.149323 15.122124,385.334991 
	C16.650625,383.160034 18.695328,381.181335 19.611017,378.773346 
	C22.377237,371.498962 24.705091,364.057892 27.388725,356.328949 
M32.926517,365.529388 
	C32.601433,366.830902 32.276348,368.132446 31.940285,369.477936 
	C36.676468,369.477936 40.743481,369.477936 45.353416,369.477936 
	C43.104378,362.407684 40.993366,355.771362 38.580070,348.184723 
	C37.432426,351.737823 36.640713,354.250366 35.808300,356.749359 
	C34.919891,359.416412 33.993027,362.070679 32.926517,365.529388 
z"/>
<path fill="#090909" opacity="1.000000" stroke="none" 
	d="
M330.453644,384.673248 
	C331.910431,383.173615 333.812958,381.761688 333.844849,380.308746 
	C334.093536,368.982971 334.132538,357.645233 333.826874,346.322266 
	C333.778900,344.545074 331.662628,342.823700 330.502716,341.076538 
	C330.091797,341.294708 329.680878,341.512878 329.269958,341.731079 
	C329.269958,339.782928 329.269958,337.834808 329.269958,335.629639 
	C333.878052,335.629639 338.304871,335.629639 343.155029,335.629639 
	C343.155029,341.894531 343.155029,348.009033 343.155029,353.974487 
	C346.862854,352.802490 350.171265,351.067841 353.590485,350.811615 
	C362.146515,350.170380 366.672729,354.511902 366.919617,363.107208 
	C367.110779,369.762573 366.957794,376.427795 366.957794,383.508057 
	C371.741608,383.692627 371.861237,386.650696 370.779510,390.471252 
	C364.959442,390.471252 359.068604,390.471252 352.935791,390.471252 
	C352.403137,387.635742 351.419891,384.925537 355.693878,383.981598 
	C356.391052,383.827576 357.079193,381.875336 357.105133,380.739044 
	C357.226715,375.410736 357.079102,370.076996 357.099823,364.745483 
	C357.113800,361.151947 355.934082,358.270752 351.986298,358.080109 
	C348.044281,357.889771 344.302795,359.345123 343.983521,363.812531 
	C343.523743,370.245941 343.866058,376.736694 343.866058,383.512146 
	C344.971680,383.872101 346.342224,384.318268 347.725067,384.768463 
	C347.725067,386.707306 347.725067,388.486389 347.725067,390.501587 
	C341.571533,390.501587 335.629486,390.501587 328.745636,390.501587 
	C329.201080,388.463562 329.616943,386.602783 330.453644,384.673248 
z"/>
<path fill="#0C0C0C" opacity="1.000000" stroke="none" 
	d="
M205.374725,366.998047 
	C205.374710,361.499207 205.273727,356.496887 205.411102,351.501099 
	C205.498810,348.311432 205.532944,345.398438 201.232147,345.598816 
	C201.232147,343.255615 201.232147,341.295959 201.232147,339.124023 
	C213.724289,339.124023 225.999512,339.124023 238.609741,339.124023 
	C238.609741,343.457153 238.609741,347.670776 238.609741,352.288727 
	C236.043915,352.451019 233.609085,352.605042 231.243637,352.754669 
	C229.603348,346.825867 227.638092,346.244934 215.422852,347.887939 
	C215.422852,351.946655 215.422852,356.043152 215.422852,360.603455 
	C221.624847,360.603455 227.702957,360.603455 233.986450,360.603455 
	C233.986450,363.492462 233.986450,365.919739 233.986450,368.677734 
	C227.843552,368.677734 221.900635,368.677734 215.561127,368.677734 
	C215.561127,373.706818 215.561127,378.428009 215.561127,383.449615 
	C217.530548,383.627228 219.626740,383.816315 221.863586,384.018066 
	C221.863586,386.160431 221.863586,388.134918 221.863586,390.429352 
	C215.060867,390.429352 208.317703,390.429352 201.147049,390.429352 
	C201.250443,387.740631 198.890472,384.326965 204.151596,383.467529 
	C204.731247,383.372833 205.272873,381.213867 205.315201,379.994385 
	C205.459671,375.833008 205.373093,371.663635 205.374725,366.998047 
z"/>
<path fill="#0A0A0A" opacity="1.000000" stroke="none" 
	d="
M463.429138,390.734497 
	C457.839020,390.740723 452.693451,390.740723 447.236847,390.740723 
	C447.109436,388.864532 447.001251,387.271454 446.860352,385.196625 
	C451.433502,384.681244 451.884338,381.556152 451.683014,377.748383 
	C451.445770,373.261108 451.627289,368.751648 451.627625,364.251831 
	C451.627838,361.419617 452.040222,358.628296 447.799957,357.982635 
	C446.873291,357.841553 446.460022,354.328888 445.764679,352.231323 
	C457.282043,350.718994 459.211334,351.123627 459.948090,353.949097 
	C464.504608,352.850677 468.975433,351.164429 473.546173,350.825409 
	C479.236298,350.403412 483.193970,353.707703 483.946045,359.419464 
	C484.745270,365.489380 484.604309,371.684692 484.836456,377.826660 
	C484.905121,379.643372 484.847015,381.464905 484.847015,383.791473 
	C490.299591,383.417938 489.046478,387.026154 488.876770,390.417847 
	C482.744904,390.417847 476.687531,390.417847 470.378174,390.417847 
	C470.378174,388.683411 470.378174,387.076996 470.378174,385.097321 
	C474.583069,384.886810 475.404114,382.250824 475.098846,378.386566 
	C474.758636,374.079834 474.977112,369.726074 475.014130,365.393311 
	C475.047577,361.480713 473.957214,358.248047 469.461090,358.036499 
	C465.077576,357.830200 461.736053,360.138519 461.380615,364.520782 
	C460.871948,370.791626 461.251007,377.134491 461.251007,383.429047 
	C466.536804,384.901154 467.337952,387.177216 463.429138,390.734497 
z"/>
<path fill="#090909" opacity="1.000000" stroke="none" 
	d="
M205.565063,287.593689 
	C207.726227,287.555847 209.445023,287.612427 211.988998,287.667206 
	C214.217758,287.588959 215.621338,287.512482 217.447144,287.548645 
	C219.594742,287.661285 221.320114,287.661285 223.164383,287.661285 
	C223.373978,284.332062 223.536789,281.746124 223.731354,278.655609 
	C226.616669,278.801178 229.206924,278.931854 231.797165,279.062561 
	C231.797165,284.515594 231.797165,289.968597 231.797165,295.671509 
	C191.440811,295.671509 151.531799,295.671509 110.987000,295.671509 
	C110.987000,293.380798 110.987000,291.119171 111.006241,288.399384 
	C112.408440,287.854523 113.791382,287.767792 115.580673,287.591309 
	C120.018646,287.563782 124.050285,287.626007 128.536133,287.596680 
	C132.690170,287.567413 136.389969,287.629639 140.541763,287.599365 
	C144.693176,287.569702 148.392624,287.632599 152.544342,287.602905 
	C156.033356,287.572754 159.070068,287.635193 162.553009,287.604462 
	C165.375198,287.573395 167.751190,287.635529 170.564026,287.604675 
	C173.377518,287.573914 175.754150,287.636108 178.567657,287.603912 
	C181.709656,287.570953 184.414825,287.632385 187.562592,287.600037 
	C190.710495,287.568146 193.415787,287.630066 196.563828,287.598022 
	C199.711929,287.565399 202.417313,287.626770 205.565063,287.593689 
z"/>
<path fill="#090909" opacity="1.000000" stroke="none" 
	d="
M283.649994,384.369385 
	C284.344208,386.398804 284.666321,388.247345 284.984894,390.075592 
	C283.948273,390.412781 283.488953,390.687744 283.026764,390.692566 
	C279.540100,390.729034 276.052887,390.712433 272.393677,390.712433 
	C272.149689,389.555237 271.926422,388.496399 271.703857,387.440704 
	C271.359192,387.537140 270.992462,387.533569 270.783752,387.713409 
	C261.403717,395.794128 248.851624,391.773773 246.437210,379.539520 
	C245.559143,375.090240 245.572525,370.135559 246.544083,365.711212 
	C249.726089,351.220398 260.327576,349.376740 273.142975,351.165924 
	C275.401520,351.481232 277.566589,352.466492 280.045929,353.225342 
	C280.045929,361.901764 280.065521,370.530701 280.033386,379.159454 
	C280.024323,381.587128 279.900208,383.990570 283.649994,384.369385 
M270.991943,366.571564 
	C270.990051,364.575928 271.169342,362.556030 270.907227,360.595184 
	C270.782288,359.660675 270.014404,358.410889 269.200775,358.036743 
	C264.865692,356.043427 258.611847,358.062012 257.588501,362.626068 
	C256.391602,367.964355 256.170197,373.696838 256.614441,379.169922 
	C256.946350,383.258942 260.360260,385.312195 264.658722,384.698364 
	C268.713257,384.119385 270.701630,381.415436 270.938171,377.516602 
	C271.139252,374.202484 270.987549,370.866943 270.991943,366.571564 
z"/>
<path fill="#CC7A79" opacity="1.000000" stroke="none" 
	d="
M231.901306,278.637756 
	C229.206924,278.931854 226.616669,278.801178 223.731354,278.655609 
	C223.536789,281.746124 223.373978,284.332062 223.164383,287.661285 
	C221.320114,287.661285 219.594742,287.661285 217.438721,287.120422 
	C217.005188,256.145905 216.978607,225.712234 217.058151,195.278824 
	C217.062943,193.446716 217.914200,191.616806 218.371582,189.785873 
	C222.027542,189.742355 225.690918,189.559677 229.334198,189.753738 
	C230.238281,189.801895 231.077408,191.069992 231.946396,191.777328 
	C231.046982,192.452133 230.221466,193.531906 229.231857,193.712524 
	C227.485580,194.031250 225.639267,193.801727 223.487000,193.801727 
	C223.487000,196.941299 223.487000,199.660065 223.487000,201.778076 
	C225.591797,205.215515 232.672363,199.590271 231.826721,207.648331 
	C229.090714,207.830872 226.499634,208.003723 223.527710,208.201996 
	C223.527710,211.019791 223.527710,213.722122 223.527710,215.859512 
	C225.699661,219.148499 232.749741,213.622818 231.874023,221.280777 
	C228.926239,222.001678 225.551331,221.959167 223.638626,223.610397 
	C222.432602,224.651566 223.413681,228.226196 223.413681,230.932129 
	C226.306580,231.147736 228.890961,231.340347 231.721970,231.551331 
	C231.721970,233.016907 231.721970,234.254089 231.721970,236.109390 
	C225.234589,234.916779 221.121796,236.987427 223.534592,243.922424 
	C224.088333,245.514038 228.483536,245.769135 231.413544,246.739563 
	C231.997238,249.553055 231.997238,249.553055 223.696899,251.322067 
	C222.331009,259.008972 222.331009,259.008972 231.382355,260.203491 
	C231.980301,264.053131 231.980301,264.053131 223.542389,265.120422 
	C223.414307,266.291992 223.304703,267.560333 223.132462,268.820129 
	C222.616501,272.593872 223.917465,274.596497 228.027390,273.919006 
	C231.517212,273.343719 232.434250,275.155853 231.901306,278.637756 
z"/>
<path fill="#0E0E0E" opacity="1.000000" stroke="none" 
	d="
M88.427879,390.746094 
	C82.152893,390.752319 76.322922,390.752319 70.040504,390.752319 
	C69.955162,388.897461 69.873566,387.124115 69.775276,384.987823 
	C74.226959,384.818359 74.522842,381.939850 74.421272,378.443542 
	C74.233917,371.994354 74.367729,365.535858 74.367729,358.870422 
	C72.131073,358.700348 70.354027,358.565247 68.282150,358.407715 
	C68.282150,356.219391 68.282150,354.143372 68.282150,351.883789 
	C70.075653,351.756287 71.872993,351.628540 74.011841,351.476501 
	C75.157700,345.718689 74.117134,338.632294 81.280205,335.836578 
	C87.174011,333.536224 92.988495,334.371826 98.935555,337.504608 
	C98.185432,339.535431 97.466621,341.481445 96.759781,343.395081 
	C85.336594,340.912567 83.292480,342.265564 84.493477,351.741272 
	C88.016251,351.741272 91.599754,351.741272 95.378593,351.741272 
	C95.378593,354.089203 95.378593,356.017883 95.378593,358.436859 
	C91.582939,358.436859 88.012711,358.436859 84.235970,358.436859 
	C84.235970,367.033356 84.235970,375.141174 84.235970,382.900635 
	C86.520500,383.949951 88.842377,384.621063 90.520615,386.048767 
	C90.973724,386.434235 89.475464,389.113495 88.427879,390.746094 
z"/>
<path fill="#090909" opacity="1.000000" stroke="none" 
	d="
M156.934143,391.876770 
	C146.277267,391.233856 141.853210,387.304169 139.677399,376.969330 
	C137.542007,366.826447 140.795059,357.109894 147.851624,353.146149 
	C158.161926,347.354736 174.755707,350.278809 174.955109,368.277344 
	C174.991486,371.561005 174.749207,374.937897 174.001053,378.122711 
	C171.966248,386.784546 166.418182,391.193848 156.934143,391.876770 
M165.047699,375.070953 
	C164.899368,371.424316 165.097214,367.720490 164.506760,364.146912 
	C163.898224,360.463959 161.826157,357.749359 157.496964,357.677032 
	C153.340454,357.607666 150.351288,359.691833 150.075562,363.547943 
	C149.671051,369.204590 149.715271,375.052399 150.746201,380.599854 
	C151.506149,384.689362 157.276550,386.474152 160.496429,383.768860 
	C162.662491,381.949066 163.551697,378.609467 165.047699,375.070953 
z"/>
<path fill="#0A0A0A" opacity="1.000000" stroke="none" 
	d="
M439.015564,364.127319 
	C439.054352,368.337494 439.438751,372.180267 438.983978,375.921051 
	C437.723938,386.286316 430.270233,392.258148 419.663635,391.806061 
	C410.386322,391.410583 404.464081,384.957123 403.983978,374.649261 
	C403.883606,372.494202 403.882996,370.326447 403.983917,368.171448 
	C404.423615,358.783173 410.318817,351.849823 418.728333,350.751587 
	C429.516449,349.342682 435.921967,353.442810 439.015564,364.127319 
M429.991028,371.471252 
	C429.610687,368.675842 429.535522,365.793701 428.771698,363.107330 
	C427.846130,359.852081 425.693298,357.660126 421.904968,357.677856 
	C418.317078,357.694611 415.236603,359.108307 414.910431,362.692230 
	C414.395966,368.345032 414.244812,374.170471 415.125214,379.735291 
	C415.435028,381.693573 419.208466,384.369873 421.439117,384.407257 
	C423.734253,384.445709 426.713074,382.113586 428.212585,379.986725 
	C429.607147,378.008789 429.447235,374.934875 429.991028,371.471252 
z"/>
<path fill="#0D0D0D" opacity="1.000000" stroke="none" 
	d="
M321.005371,359.798981 
	C321.043854,365.759186 316.753357,362.594727 314.124939,364.064819 
	C314.313751,358.925262 311.692719,356.782227 307.448242,357.446777 
	C305.527252,357.747589 303.858337,359.658386 302.075073,360.838806 
	C303.210022,362.482452 304.019501,364.614471 305.563934,365.643707 
	C307.414368,366.876923 309.901093,367.141815 312.096466,367.873352 
	C319.571320,370.364197 322.942657,375.002625 321.903107,381.324860 
	C320.927277,387.259216 315.491333,391.518341 308.485535,391.723175 
	C305.829254,391.800842 303.147247,391.851624 300.510498,391.584290 
	C292.766907,390.799255 290.541870,388.027435 292.587555,380.533783 
	C293.031281,378.908173 296.601013,378.135864 299.988403,376.282532 
	C298.907532,383.815460 302.145416,385.605499 307.037262,384.615997 
	C308.887390,384.241791 310.418945,382.292511 312.095703,381.061218 
	C310.823761,379.377869 309.870819,377.179901 308.198151,376.142914 
	C306.160400,374.879578 303.457764,374.746826 301.147156,373.854523 
	C294.546936,371.305573 292.404968,367.918701 293.000305,361.346069 
	C293.446808,356.416107 297.406097,351.813385 303.019073,351.078339 
	C307.036224,350.552246 311.242126,351.197876 315.336212,351.600891 
	C319.957428,352.055786 322.009033,354.666534 321.005371,359.798981 
z"/>
<path fill="#090909" opacity="1.000000" stroke="none" 
	d="
M105.787613,366.042816 
	C105.532280,362.497192 107.085808,358.614136 101.675392,358.069183 
	C100.936790,357.994812 100.544830,354.478760 99.841827,352.032288 
	C104.916183,352.032288 109.164146,352.032288 113.700996,352.032288 
	C113.862328,353.013794 114.060555,354.219727 114.336220,355.896759 
	C118.847466,350.462097 124.789284,348.626495 130.039490,351.907471 
	C132.453903,353.416290 132.131821,359.304047 133.186707,363.784027 
	C129.939529,364.175415 127.867287,364.425171 127.157341,364.510742 
	C124.753326,362.125031 123.136200,359.137390 121.382462,359.054901 
	C117.152512,358.856018 115.459595,362.522156 115.244896,366.180389 
	C114.906197,371.951447 115.154785,377.756989 115.154785,383.743073 
	C117.464149,384.031677 119.400055,384.273651 121.652237,384.555115 
	C121.652237,386.555145 121.652237,388.428040 121.652237,390.499878 
	C114.804832,390.499878 108.046913,390.499878 101.137665,390.499878 
	C101.137665,388.625732 101.137665,386.989319 101.137665,384.869263 
	C105.883804,384.901855 105.975975,381.643799 105.823517,378.029785 
	C105.662163,374.204926 105.787491,370.367950 105.787613,366.042816 
z"/>
<path fill="#C67E7D" opacity="1.000000" stroke="none" 
	d="
M218.198395,189.364731 
	C217.914200,191.616806 217.062943,193.446716 217.058151,195.278824 
	C216.978607,225.712234 217.005188,256.145905 217.016479,287.007751 
	C215.621338,287.512482 214.217758,287.588959 212.404663,287.554871 
	C211.996780,250.918747 211.979736,214.393112 212.041840,177.867630 
	C212.046005,175.425400 212.649933,172.984207 213.050964,170.097855 
	C219.441040,174.894653 217.076324,182.339813 218.198395,189.364731 
z"/>
<path fill="#8676D7" opacity="1.000000" stroke="none" 
	d="
M314.945435,184.887756 
	C313.295593,188.198761 311.869019,191.198624 310.291809,194.117081 
	C307.740021,198.838928 304.734802,199.805267 300.045166,197.548035 
	C299.895905,197.476181 299.759644,197.377762 299.611389,197.303513 
	C287.968079,191.473480 287.495819,190.049683 293.342590,178.366516 
	C294.159546,176.734039 294.838104,175.004395 295.859924,173.510727 
	C296.764557,172.188324 297.844299,170.608292 299.216644,170.048050 
	C305.455444,167.501144 310.074341,171.878372 314.616974,174.719315 
	C318.334686,177.044357 317.088989,181.127518 314.945435,184.887756 
z"/>
<path fill="#0F0F0F" opacity="1.000000" stroke="none" 
	d="
M392.599915,381.695068 
	C393.919403,383.177948 395.225800,384.189301 396.785431,385.396667 
	C396.785431,386.718231 396.785431,388.502625 396.785431,390.756714 
	C391.970337,390.756714 387.346893,390.771820 382.723694,390.747864 
	C381.257324,390.740265 379.791504,390.628448 378.182251,390.558014 
	C378.182251,388.628021 378.182251,386.993103 378.182251,385.035492 
	C382.441254,384.714935 383.230347,382.032654 383.050171,378.178772 
	C382.763428,372.045288 382.973541,365.888611 382.973541,359.401917 
	C381.393311,358.920868 379.901123,358.466644 378.327484,357.987610 
	C378.327484,355.916443 378.327484,353.976929 378.327484,351.855774 
	C383.000916,351.855774 387.447144,351.855774 392.586823,351.855774 
	C392.586823,361.736969 392.586823,371.480255 392.599915,381.695068 
z"/>
<path fill="#8676D7" opacity="1.000000" stroke="none" 
	d="
M266.971924,177.782486 
	C265.771362,172.831360 270.236664,161.503143 274.142731,159.555984 
	C278.413422,157.427094 282.349365,159.190491 285.673737,161.777740 
	C288.689636,164.124908 288.633026,167.466721 286.997253,170.787033 
	C286.192871,172.419800 285.278564,174.017334 284.662384,175.720688 
	C281.576233,184.252075 275.356354,186.304123 266.971924,177.782486 
z"/>
<path fill="#111111" opacity="1.000000" stroke="none" 
	d="
M387.712524,346.730469 
	C383.362854,346.789520 381.028015,345.092743 380.958313,340.880280 
	C380.900787,337.403229 383.014954,335.091766 385.988037,335.330353 
	C388.306976,335.516449 391.519257,337.328186 392.447083,339.303894 
	C394.123962,342.874756 391.905121,345.592682 387.712524,346.730469 
z"/>
<path fill="#CA8988" opacity="1.000000" stroke="none" 
	d="
M209.366196,94.932304 
	C208.978394,93.426697 208.968246,91.934418 208.927963,89.985397 
	C211.062134,88.353638 213.226440,87.178627 215.343033,86.029518 
	C219.102921,90.777626 218.969696,91.409302 213.947983,93.410446 
	C212.562668,93.962486 211.146103,94.436058 209.366196,94.932304 
z"/>
<path fill="#9184CE" opacity="1.000000" stroke="none" 
	d="
M248.178131,286.369202 
	C250.728241,286.397522 253.299271,286.808441 255.960693,287.601532 
	C253.433746,287.573059 250.816391,287.162445 248.178131,286.369202 
z"/>
<path fill="#9184CE" opacity="1.000000" stroke="none" 
	d="
M369.579468,36.336216 
	C369.892670,37.512474 369.987518,39.007683 369.987640,40.502895 
	C369.994873,121.244492 369.995605,201.986099 369.982300,282.727692 
	C369.982056,284.212158 369.804993,285.696625 369.340332,287.325867 
	C368.980591,205.850006 368.988708,124.229401 369.014404,42.608795 
	C369.015045,40.624218 369.211731,38.639709 369.579468,36.336216 
z"/>
<path fill="#F1F1F1" opacity="1.000000" stroke="none" 
	d="
M33.004730,365.129944 
	C33.993027,362.070679 34.919891,359.416412 35.808300,356.749359 
	C36.640713,354.250366 37.432426,351.737823 38.580070,348.184723 
	C40.993366,355.771362 43.104378,362.407684 45.353416,369.477936 
	C40.743481,369.477936 36.676468,369.477936 31.940285,369.477936 
	C32.276348,368.132446 32.601433,366.830902 33.004730,365.129944 
z"/>
<path fill="#FBFBFB" opacity="1.000000" stroke="none" 
	d="
M270.991943,367.056213 
	C270.987549,370.866943 271.139252,374.202484 270.938171,377.516602 
	C270.701630,381.415436 268.713257,384.119385 264.658722,384.698364 
	C260.360260,385.312195 256.946350,383.258942 256.614441,379.169922 
	C256.170197,373.696838 256.391602,367.964355 257.588501,362.626068 
	C258.611847,358.062012 264.865692,356.043427 269.200775,358.036743 
	C270.014404,358.410889 270.782288,359.660675 270.907227,360.595184 
	C271.169342,362.556030 270.990051,364.575928 270.991943,367.056213 
z"/>
<path fill="#F9F9F9" opacity="1.000000" stroke="none" 
	d="
M165.029907,375.510376 
	C163.551697,378.609467 162.662491,381.949066 160.496429,383.768860 
	C157.276550,386.474152 151.506149,384.689362 150.746201,380.599854 
	C149.715271,375.052399 149.671051,369.204590 150.075562,363.547943 
	C150.351288,359.691833 153.340454,357.607666 157.496964,357.677032 
	C161.826157,357.749359 163.898224,360.463959 164.506760,364.146912 
	C165.097214,367.720490 164.899368,371.424316 165.029907,375.510376 
z"/>
<path fill="#F8F8F8" opacity="1.000000" stroke="none" 
	d="
M429.981384,371.907349 
	C429.447235,374.934875 429.607147,378.008789 428.212585,379.986725 
	C426.713074,382.113586 423.734253,384.445709 421.439117,384.407257 
	C419.208466,384.369873 415.435028,381.693573 415.125214,379.735291 
	C414.244812,374.170471 414.395966,368.345032 414.910431,362.692230 
	C415.236603,359.108307 418.317078,357.694611 421.904968,357.677856 
	C425.693298,357.660126 427.846130,359.852081 428.771698,363.107330 
	C429.535522,365.793701 429.610687,368.675842 429.981384,371.907349 
z"/>
</svg>